<svg width="18" height="17" viewBox="0 0 18 17" fill="none" xmlns="http://www.w3.org/2000/svg">
<path d="M15.677 16.6076L9.96198 10.8916C7.41965 12.6991 3.91642 12.257 1.90285 9.87456C-0.110711 7.49214 0.0371394 3.96422 2.24298 1.75863C4.44824 -0.447923 7.97651 -0.596414 10.3594 1.41705C12.7422 3.4305 13.1846 6.93408 11.377 9.47663L17.092 15.1926L15.678 16.6066L15.677 16.6076ZM6.48498 2.00062C4.58868 2.00019 2.95267 3.33131 2.56745 5.18807C2.18224 7.04482 3.15369 8.9169 4.89366 9.67087C6.63362 10.4248 8.66388 9.85346 9.75522 8.30268C10.8466 6.7519 10.699 4.64795 9.40198 3.26463L10.007 3.86463L9.32498 3.18463L9.31298 3.17263C8.56477 2.41981 7.54637 1.99776 6.48498 2.00062Z" fill="#266FF1"/>
</svg>
